<svg width="9" height="9" viewBox="0 0 9 9" fill="none" xmlns="http://www.w3.org/2000/svg">
<path fill-rule="evenodd" clip-rule="evenodd" d="M2.36474 1.21893C2.07355 0.924339 1.60144 0.924339 1.31025 1.21893C1.01906 1.51351 1.01906 1.99113 1.31025 2.28572L3.94492 4.95114L1.21644 7.71146C0.92525 8.00604 0.92525 8.48366 1.21644 8.77825C1.50763 9.07284 1.97974 9.07284 2.27093 8.77825L4.99941 6.01793L7.72779 8.77815C8.01898 9.07274 8.49109 9.07274 8.78228 8.77815C9.07347 8.48356 9.07347 8.00594 8.78228 7.71136L6.0539 4.95114L8.68848 2.28582C8.97966 1.99124 8.97967 1.51361 8.68848 1.21903C8.39729 0.92444 7.92517 0.924441 7.63399 1.21903L4.99941 3.88434L2.36474 1.21893Z" fill="#555555"/>
</svg>
